<?xml version="1.0"?>
<!-- Generated by SVGo and Plotinum VG -->
<svg width="576pt" height="432pt" viewBox="0 0 576 432"
	xmlns="http://www.w3.org/2000/svg"
	xmlns:xlink="http://www.w3.org/1999/xlink">
<g transform="scale(1, -1) translate(0, -432)">
<path d="M0,0L576,0L576,432L0,432Z" style="fill:#FFFFFF" />
<text x="106.58" y="-422.61" transform="scale(1, -1)"
	style="font-family:Liberation Serif;font-variant:normal;font-weight:normal;font-style:normal;font-size:12px">Perfect Intersection - Even Sum | Clearing: 50 | Commission: 0 | Traded: 15</text>
<text x="249.1" y="-3.9023" transform="scale(1, -1)"
	style="font-family:Liberation Serif;font-variant:normal;font-weight:normal;font-style:normal;font-size:12px">Quantity (Energy Units)</text>
<text x="41.135" y="-16.541" transform="scale(1, -1)"
	style="font-family:Liberation Serif;font-variant:normal;font-weight:normal;font-style:normal;font-size:10px">0</text>
<text x="216.92" y="-16.541" transform="scale(1, -1)"
	style="font-family:Liberation Serif;font-variant:normal;font-weight:normal;font-style:normal;font-size:10px">5</text>
<text x="390.21" y="-16.541" transform="scale(1, -1)"
	style="font-family:Liberation Serif;font-variant:normal;font-weight:normal;font-style:normal;font-size:10px">10</text>
<text x="566" y="-16.541" transform="scale(1, -1)"
	style="font-family:Liberation Serif;font-variant:normal;font-weight:normal;font-style:normal;font-size:10px">15</text>
<path d="M43.635,24.363L43.635,32.363" style="fill:none;stroke:#000000;stroke-width:0.5" />
<path d="M219.42,24.363L219.42,32.363" style="fill:none;stroke:#000000;stroke-width:0.5" />
<path d="M395.21,24.363L395.21,32.363" style="fill:none;stroke:#000000;stroke-width:0.5" />
<path d="M571,24.363L571,32.363" style="fill:none;stroke:#000000;stroke-width:0.5" />
<path d="M78.792,28.363L78.792,32.363" style="fill:none;stroke:#000000;stroke-width:0.5" />
<path d="M113.95,28.363L113.95,32.363" style="fill:none;stroke:#000000;stroke-width:0.5" />
<path d="M149.11,28.363L149.11,32.363" style="fill:none;stroke:#000000;stroke-width:0.5" />
<path d="M184.27,28.363L184.27,32.363" style="fill:none;stroke:#000000;stroke-width:0.5" />
<path d="M254.58,28.363L254.58,32.363" style="fill:none;stroke:#000000;stroke-width:0.5" />
<path d="M289.74,28.363L289.74,32.363" style="fill:none;stroke:#000000;stroke-width:0.5" />
<path d="M324.9,28.363L324.9,32.363" style="fill:none;stroke:#000000;stroke-width:0.5" />
<path d="M360.05,28.363L360.05,32.363" style="fill:none;stroke:#000000;stroke-width:0.5" />
<path d="M430.37,28.363L430.37,32.363" style="fill:none;stroke:#000000;stroke-width:0.5" />
<path d="M465.53,28.363L465.53,32.363" style="fill:none;stroke:#000000;stroke-width:0.5" />
<path d="M500.68,28.363L500.68,32.363" style="fill:none;stroke:#000000;stroke-width:0.5" />
<path d="M535.84,28.363L535.84,32.363" style="fill:none;stroke:#000000;stroke-width:0.5" />
<path d="M43.635,32.363L571,32.363" style="fill:none;stroke:#000000;stroke-width:0.5" />
<g transform="rotate(90)">
<text x="181.98" y="9.3867" transform="scale(1, -1)"
	style="font-family:Liberation Serif;font-variant:normal;font-weight:normal;font-style:normal;font-size:12px">Price (Coins/Unit)</text>
</g>
<text x="20.885" y="-36.828" transform="scale(1, -1)"
	style="font-family:Liberation Serif;font-variant:normal;font-weight:normal;font-style:normal;font-size:10px">0</text>
<text x="15.885" y="-223.86" transform="scale(1, -1)"
	style="font-family:Liberation Serif;font-variant:normal;font-weight:normal;font-style:normal;font-size:10px">30</text>
<text x="15.885" y="-410.89" transform="scale(1, -1)"
	style="font-family:Liberation Serif;font-variant:normal;font-weight:normal;font-style:normal;font-size:10px">60</text>
<path d="M28.385,39.113L36.385,39.113" style="fill:none;stroke:#000000;stroke-width:0.5" />
<path d="M28.385,226.14L36.385,226.14" style="fill:none;stroke:#000000;stroke-width:0.5" />
<path d="M28.385,413.17L36.385,413.17" style="fill:none;stroke:#000000;stroke-width:0.5" />
<path d="M32.385,101.46L36.385,101.46" style="fill:none;stroke:#000000;stroke-width:0.5" />
<path d="M32.385,163.8L36.385,163.8" style="fill:none;stroke:#000000;stroke-width:0.5" />
<path d="M32.385,288.49L36.385,288.49" style="fill:none;stroke:#000000;stroke-width:0.5" />
<path d="M32.385,350.83L36.385,350.83" style="fill:none;stroke:#000000;stroke-width:0.5" />
<path d="M36.385,39.113L36.385,413.17" style="fill:none;stroke:#000000;stroke-width:0.5" />
<path d="M43.635,39.113L43.635,413.17" style="fill:none;stroke:#808080;stroke-width:0.25" />
<path d="M219.42,39.113L219.42,413.17" style="fill:none;stroke:#808080;stroke-width:0.25" />
<path d="M395.21,39.113L395.21,413.17" style="fill:none;stroke:#808080;stroke-width:0.25" />
<path d="M571,39.113L571,413.17" style="fill:none;stroke:#808080;stroke-width:0.25" />
<path d="M43.635,39.113L571,39.113" style="fill:none;stroke:#808080;stroke-width:0.25" />
<path d="M43.635,226.14L571,226.14" style="fill:none;stroke:#808080;stroke-width:0.25" />
<path d="M43.635,413.17L571,413.17" style="fill:none;stroke:#808080;stroke-width:0.25" />
<path d="M43.635,413.17L571,413.17L571,39.113" style="fill:none;stroke:#E74C3C;stroke-width:3" />
<path d="M43.635,288.49L571,288.49" style="fill:none;stroke:#3498DB;stroke-width:3" />
<path d="M43.635,350.83L571,350.83" style="fill:none;stroke:#F39C12;stroke-width:3;stroke-dasharray:5,5" />
<path d="M556,411.02L576,411.02" style="fill:none;stroke:#E74C3C;stroke-width:3" />
<text x="467.36" y="-408.54" transform="scale(1, -1)"
	style="font-family:Liberation Serif;font-variant:normal;font-weight:normal;font-style:normal;font-size:12px">Demand (Buyers)</text>
<path d="M556,400.84L576,400.84" style="fill:none;stroke:#3498DB;stroke-width:3" />
<text x="475.34" y="-398.35" transform="scale(1, -1)"
	style="font-family:Liberation Serif;font-variant:normal;font-weight:normal;font-style:normal;font-size:12px">Supply (Sellers)</text>
<path d="M556,390.66L576,390.66" style="fill:none;stroke:#F39C12;stroke-width:3;stroke-dasharray:5,5" />
<text x="465.69" y="-388.17" transform="scale(1, -1)"
	style="font-family:Liberation Serif;font-variant:normal;font-weight:normal;font-style:normal;font-size:12px">Clearing Price: 50</text>
</g>
</svg>
