<?xml version="1.0"?>
<!-- Generated by SVGo and Plotinum VG -->
<svg width="576pt" height="432pt" viewBox="0 0 576 432"
	xmlns="http://www.w3.org/2000/svg"
	xmlns:xlink="http://www.w3.org/1999/xlink">
<g transform="scale(1, -1) translate(0, -432)">
<path d="M0,0L576,0L576,432L0,432Z" style="fill:#FFFFFF" />
<text x="104.52" y="-420.81" transform="scale(1, -1)"
	style="font-family:Liberation Serif;font-variant:normal;font-weight:normal;font-style:normal;font-size:12px">N=10 (5 buyers, 5 sellers) | Clearing: 44 | Commission: 50 | Traded: 50 units</text>
<text x="188.14" y="-408.81" transform="scale(1, -1)"
	style="font-family:Liberation Serif;font-variant:normal;font-weight:normal;font-style:normal;font-size:12px">Euclidean Division: (45 + 44) = 2×44 + 1</text>
<text x="257.1" y="-3.9023" transform="scale(1, -1)"
	style="font-family:Liberation Serif;font-variant:normal;font-weight:normal;font-style:normal;font-size:12px">Quantity (Energy Units)</text>
<text x="47.385" y="-16.541" transform="scale(1, -1)"
	style="font-family:Liberation Serif;font-variant:normal;font-weight:normal;font-style:normal;font-size:10px">0.00</text>
<text x="211.03" y="-16.541" transform="scale(1, -1)"
	style="font-family:Liberation Serif;font-variant:normal;font-weight:normal;font-style:normal;font-size:10px">25.00</text>
<text x="377.17" y="-16.541" transform="scale(1, -1)"
	style="font-family:Liberation Serif;font-variant:normal;font-weight:normal;font-style:normal;font-size:10px">50.00</text>
<text x="543.31" y="-16.541" transform="scale(1, -1)"
	style="font-family:Liberation Serif;font-variant:normal;font-weight:normal;font-style:normal;font-size:10px">75.00</text>
<path d="M56.135,24.363L56.135,32.363" style="fill:none;stroke:#000000;stroke-width:0.5" />
<path d="M222.28,24.363L222.28,32.363" style="fill:none;stroke:#000000;stroke-width:0.5" />
<path d="M388.42,24.363L388.42,32.363" style="fill:none;stroke:#000000;stroke-width:0.5" />
<path d="M554.56,24.363L554.56,32.363" style="fill:none;stroke:#000000;stroke-width:0.5" />
<path d="M89.363,28.363L89.363,32.363" style="fill:none;stroke:#000000;stroke-width:0.5" />
<path d="M122.59,28.363L122.59,32.363" style="fill:none;stroke:#000000;stroke-width:0.5" />
<path d="M155.82,28.363L155.82,32.363" style="fill:none;stroke:#000000;stroke-width:0.5" />
<path d="M189.05,28.363L189.05,32.363" style="fill:none;stroke:#000000;stroke-width:0.5" />
<path d="M255.51,28.363L255.51,32.363" style="fill:none;stroke:#000000;stroke-width:0.5" />
<path d="M288.73,28.363L288.73,32.363" style="fill:none;stroke:#000000;stroke-width:0.5" />
<path d="M321.96,28.363L321.96,32.363" style="fill:none;stroke:#000000;stroke-width:0.5" />
<path d="M355.19,28.363L355.19,32.363" style="fill:none;stroke:#000000;stroke-width:0.5" />
<path d="M421.65,28.363L421.65,32.363" style="fill:none;stroke:#000000;stroke-width:0.5" />
<path d="M454.88,28.363L454.88,32.363" style="fill:none;stroke:#000000;stroke-width:0.5" />
<path d="M488.11,28.363L488.11,32.363" style="fill:none;stroke:#000000;stroke-width:0.5" />
<path d="M521.33,28.363L521.33,32.363" style="fill:none;stroke:#000000;stroke-width:0.5" />
<path d="M56.135,32.363L574.5,32.363" style="fill:none;stroke:#000000;stroke-width:0.5" />
<g transform="rotate(90)">
<text x="177.6" y="9.3867" transform="scale(1, -1)"
	style="font-family:Liberation Serif;font-variant:normal;font-weight:normal;font-style:normal;font-size:12px">Price (Coins/Unit)</text>
</g>
<text x="20.885" y="-36.828" transform="scale(1, -1)"
	style="font-family:Liberation Serif;font-variant:normal;font-weight:normal;font-style:normal;font-size:10px">0.00</text>
<text x="15.885" y="-155.43" transform="scale(1, -1)"
	style="font-family:Liberation Serif;font-variant:normal;font-weight:normal;font-style:normal;font-size:10px">25.00</text>
<text x="15.885" y="-274.04" transform="scale(1, -1)"
	style="font-family:Liberation Serif;font-variant:normal;font-weight:normal;font-style:normal;font-size:10px">50.00</text>
<text x="15.885" y="-392.64" transform="scale(1, -1)"
	style="font-family:Liberation Serif;font-variant:normal;font-weight:normal;font-style:normal;font-size:10px">75.00</text>
<path d="M40.885,39.113L48.885,39.113" style="fill:none;stroke:#000000;stroke-width:0.5" />
<path d="M40.885,157.72L48.885,157.72" style="fill:none;stroke:#000000;stroke-width:0.5" />
<path d="M40.885,276.32L48.885,276.32" style="fill:none;stroke:#000000;stroke-width:0.5" />
<path d="M40.885,394.92L48.885,394.92" style="fill:none;stroke:#000000;stroke-width:0.5" />
<path d="M44.885,62.834L48.885,62.834" style="fill:none;stroke:#000000;stroke-width:0.5" />
<path d="M44.885,86.555L48.885,86.555" style="fill:none;stroke:#000000;stroke-width:0.5" />
<path d="M44.885,110.28L48.885,110.28" style="fill:none;stroke:#000000;stroke-width:0.5" />
<path d="M44.885,134L48.885,134" style="fill:none;stroke:#000000;stroke-width:0.5" />
<path d="M44.885,181.44L48.885,181.44" style="fill:none;stroke:#000000;stroke-width:0.5" />
<path d="M44.885,205.16L48.885,205.16" style="fill:none;stroke:#000000;stroke-width:0.5" />
<path d="M44.885,228.88L48.885,228.88" style="fill:none;stroke:#000000;stroke-width:0.5" />
<path d="M44.885,252.6L48.885,252.6" style="fill:none;stroke:#000000;stroke-width:0.5" />
<path d="M44.885,300.04L48.885,300.04" style="fill:none;stroke:#000000;stroke-width:0.5" />
<path d="M44.885,323.76L48.885,323.76" style="fill:none;stroke:#000000;stroke-width:0.5" />
<path d="M44.885,347.48L48.885,347.48" style="fill:none;stroke:#000000;stroke-width:0.5" />
<path d="M44.885,371.2L48.885,371.2" style="fill:none;stroke:#000000;stroke-width:0.5" />
<path d="M48.885,39.113L48.885,404.41" style="fill:none;stroke:#000000;stroke-width:0.5" />
<path d="M56.135,39.113L56.135,404.41" style="fill:none;stroke:#808080;stroke-width:0.25" />
<path d="M222.28,39.113L222.28,404.41" style="fill:none;stroke:#808080;stroke-width:0.25" />
<path d="M388.42,39.113L388.42,404.41" style="fill:none;stroke:#808080;stroke-width:0.25" />
<path d="M554.56,39.113L554.56,404.41" style="fill:none;stroke:#808080;stroke-width:0.25" />
<path d="M56.135,39.113L574.5,39.113" style="fill:none;stroke:#808080;stroke-width:0.25" />
<path d="M56.135,157.72L574.5,157.72" style="fill:none;stroke:#808080;stroke-width:0.25" />
<path d="M56.135,276.32L574.5,276.32" style="fill:none;stroke:#808080;stroke-width:0.25" />
<path d="M56.135,394.92L574.5,394.92" style="fill:none;stroke:#808080;stroke-width:0.25" />
<path d="M56.135,380.69L135.88,380.69L135.88,337.99L228.92,337.99L228.92,304.79L388.42,304.79L388.42,200.41L521.33,200.41L521.33,195.67L554.56,195.67L554.56,39.113" style="fill:none;stroke:#E74C3C;stroke-width:3" />
<path d="M56.135,157.72L169.11,157.72L169.11,195.67L255.51,195.67L255.51,195.67L388.42,195.67L388.42,337.99L481.46,337.99L481.46,356.97L574.5,356.97" style="fill:none;stroke:#3498DB;stroke-width:3" />
<path d="M56.135,247.86L574.5,247.86" style="fill:none;stroke:#F39C12;stroke-width:3;stroke-dasharray:5,5" />
<path d="M135.88,39.113L135.88,404.41" style="fill:none;stroke:#1888166;stroke-opacity:0.58824;stroke-dasharray:2,2" />
<path d="M137.88,390.18A2,2 0 1 1 133.88,390.18A2,2 0 1 1 137.88,390.18Z" style="fill:none;stroke:#E74C3C;stroke-width:0.5" />
<path d="M228.92,39.113L228.92,361.71" style="fill:none;stroke:#1888166;stroke-opacity:0.58824;stroke-dasharray:2,2" />
<path d="M230.92,347.48A2,2 0 1 1 226.92,347.48A2,2 0 1 1 230.92,347.48Z" style="fill:none;stroke:#E74C3C;stroke-width:0.5" />
<path d="M388.42,39.113L388.42,328.51" style="fill:none;stroke:#1888166;stroke-opacity:0.58824;stroke-dasharray:2,2" />
<path d="M390.42,314.27A2,2 0 1 1 386.42,314.27A2,2 0 1 1 390.42,314.27Z" style="fill:none;stroke:#E74C3C;stroke-width:0.5" />
<path d="M521.33,39.113L521.33,224.13" style="fill:none;stroke:#2E0F2BF;stroke-opacity:0.31373;stroke-dasharray:2,2" />
<path d="M554.56,39.113L554.56,219.39" style="fill:none;stroke:#2E0F2BF;stroke-opacity:0.31373;stroke-dasharray:2,2" />
<path d="M169.11,39.113L169.11,181.44" style="fill:none;stroke:#58102174;stroke-opacity:0.58824;stroke-dasharray:2,2" />
<path d="M171.11,148.23A2,2 0 1 1 167.11,148.23A2,2 0 1 1 171.11,148.23Z" style="fill:none;stroke:#3498DB;stroke-width:0.5" />
<path d="M255.51,39.113L255.51,219.39" style="fill:none;stroke:#58102174;stroke-opacity:0.58824;stroke-dasharray:2,2" />
<path d="M257.51,186.18A2,2 0 1 1 253.51,186.18A2,2 0 1 1 257.51,186.18Z" style="fill:none;stroke:#3498DB;stroke-width:0.5" />
<path d="M388.42,39.113L388.42,219.39" style="fill:none;stroke:#58102174;stroke-opacity:0.58824;stroke-dasharray:2,2" />
<path d="M390.42,186.18A2,2 0 1 1 386.42,186.18A2,2 0 1 1 390.42,186.18Z" style="fill:none;stroke:#3498DB;stroke-width:0.5" />
<path d="M481.46,39.113L481.46,361.71" style="fill:none;stroke:#A51E42BA;stroke-opacity:0.31373;stroke-dasharray:2,2" />
<path d="M574.5,39.113L574.5,380.69" style="fill:none;stroke:#A51E42BA;stroke-opacity:0.31373;stroke-dasharray:2,2" />
<path d="M56.135,252.6L574.5,252.6" style="fill:none;stroke:#11B4646;stroke-opacity:0.70588;stroke-width:2;stroke-dasharray:10,5" />
<path d="M56.135,247.86L574.5,247.86" style="fill:none;stroke:#468D11B;stroke-opacity:0.70588;stroke-width:2;stroke-dasharray:10,5" />
<path d="M499.75,346.53A3,3 0 1 1 493.75,346.53A3,3 0 1 1 499.75,346.53Z" style="fill:none;stroke:#F39C12;stroke-width:0.5" />
<path d="M556,397.22L576,397.22" style="fill:none;stroke:#E74C3C;stroke-width:3" />
<text x="467.36" y="-394.74" transform="scale(1, -1)"
	style="font-family:Liberation Serif;font-variant:normal;font-weight:normal;font-style:normal;font-size:12px">Demand (Buyers)</text>
<path d="M556,387.04L576,387.04" style="fill:none;stroke:#3498DB;stroke-width:3" />
<text x="475.34" y="-384.55" transform="scale(1, -1)"
	style="font-family:Liberation Serif;font-variant:normal;font-weight:normal;font-style:normal;font-size:12px">Supply (Sellers)</text>
<path d="M556,376.86L576,376.86" style="fill:none;stroke:#F39C12;stroke-width:3;stroke-dasharray:5,5" />
<text x="465.69" y="-374.37" transform="scale(1, -1)"
	style="font-family:Liberation Serif;font-variant:normal;font-weight:normal;font-style:normal;font-size:12px">Clearing Price: 44</text>
<path d="M556,366.67L576,366.67" style="fill:none;stroke:#11B4646;stroke-opacity:0.70588;stroke-width:2;stroke-dasharray:10,5" />
<text x="458.57" y="-364.19" transform="scale(1, -1)"
	style="font-family:Liberation Serif;font-variant:normal;font-weight:normal;font-style:normal;font-size:12px">Marginal Buyer: 45</text>
<path d="M556,356.49L576,356.49" style="fill:none;stroke:#468D11B;stroke-opacity:0.70588;stroke-width:2;stroke-dasharray:10,5" />
<text x="459.91" y="-354" transform="scale(1, -1)"
	style="font-family:Liberation Serif;font-variant:normal;font-weight:normal;font-style:normal;font-size:12px">Marginal Seller: 44</text>
</g>
</svg>
